# xmcd
#
# Track frame offsets:
#	150
#	18490
#	45515
#	65963
#	84405
#	101396
#	116769
#	133450
#	149157
#	168008
#	183237
#	193212
#	215345
#	232519
#
# Disc length: 3308 seconds
#
# Revision: 0
# Processed by: cddbd v1.5.2PL0 Copyright (c) Steve Scherf et al.
# Submitted via: EZCDAudioConverter 8.0.2.1
#
DISCID=c70cea0e
DTITLE=Benjamin Rojas - Piano Amor CD1
DYEAR=1900
DGENRE=
TTITLE0=Penélope
TTITLE1=Que Tal Te Va Sin Mi
TTITLE2=Quién Eres Tú
TTITLE3=Si Ese Tiempo Pudiera Volver
TTITLE4=Sola Con Mi Soledad
TTITLE5=Te Amaré
TTITLE6=Por El Amor De Una Mujer
TTITLE7=Soldado Del Amor
TTITLE8=Te Llegara Una Rosa
TTITLE9=Y Cómo Es Él
TTITLE10=Quiero Abrazarte Tanto
TTITLE11=Si No Te Hubieras Ido
TTITLE12=Quiero Dormir Cansado
TTITLE13=Yo No Te Pido La Luna
EXTD=
EXTT0=
EXTT1=
EXTT2=
EXTT3=
EXTT4=
EXTT5=
EXTT6=
EXTT7=
EXTT8=
EXTT9=
EXTT10=
EXTT11=
EXTT12=
EXTT13=
PLAYORDER=
